<svg id="Layer_1" data-name="Layer 1" xmlns="http://www.w3.org/2000/svg" xmlns:xlink="http://www.w3.org/1999/xlink" viewBox="0 0 1233.76 805.37"><defs><style>.cls-1{fill:none;stroke:#ed1c24;stroke-miterlimit:10;}.cls-2{fill:#ed1c24;}.cls-3{fill:url(#linear-gradient);}.cls-4{fill:#fff;}.cls-5{fill:url(#linear-gradient-2);}</style><linearGradient id="linear-gradient" x1="205.63" y1="514.69" x2="205.63" y2="514.69" gradientUnits="userSpaceOnUse"><stop offset="0" stop-color="#ad9a56"/><stop offset="1" stop-color="#f6e58a"/></linearGradient><linearGradient id="linear-gradient-2" x1="878.9" y1="807" x2="878.9" y2="1.63" xlink:href="#linear-gradient"/></defs><title>logo</title><path class="cls-1" d="M660.27,931.56" transform="translate(0 -0.63)"/><path class="cls-1" d="M1249.73,931.56" transform="translate(0 -0.63)"/><path class="cls-1" d="M1021.26,931.56" transform="translate(0 -0.63)"/><path class="cls-2" d="M1343.41,126.19" transform="translate(0 -0.63)"/><path class="cls-1" d="M1571.88,126.19" transform="translate(0 -0.63)"/><path class="cls-3" d="M205.63,514.69" transform="translate(0 -0.63)"/><polygon class="cls-4" points="411.25 0 205.63 514.07 0 0 411.25 0"/><polygon class="cls-5" points="1005.29 0 822.51 456.95 639.73 0 524.04 289.23 730.5 805.37 911.61 805.37 936.74 742.54 1233.76 0 1005.29 0"/><polygon class="cls-4" points="401 596.82 317.58 805.37 484.42 805.37 401 596.82"/><path class="cls-1" d="M660.27,931.56" transform="translate(0 -0.63)"/></svg>